# xmcd
#
# Track frame offsets:
#	150
#	22362
#	43500
#	63272
#	84812
#	108560
#	128245
#	148377
#
# Disc length: 2270 seconds
#
# Revision: 0
# Processed by: cddbd v1.4PL0 Copyright (c) Steve Scherf et al.
# Submitted via: dBpowerAMP V4.0
#
DISCID=7008dc08
DTITLE=Kayahan - Canimin Yapraklari
DYEAR=1900
DGENRE=Pop
TTITLE0=Herseyden Cok
TTITLE1=Ben de Insanim
TTITLE2=Ask Bayraklari
TTITLE3=Sikayetim Var
TTITLE4=Eyvah
TTITLE5=Neler olur neler
TTITLE6=Sana Kaldi
TTITLE7=Herseyden Cok
EXTD=
EXTT0=
EXTT1=
EXTT2=
EXTT3=
EXTT4=
EXTT5=
EXTT6=
EXTT7=
PLAYORDER=
